<?xml version="1.0" encoding="UTF-8" standalone="no"?>
<!-- Created with Inkscape (http://www.inkscape.org/) -->

<svg
   version="1.1"
   id="svg1"
   width="1024"
   height="1024"
   viewBox="0 0 1024 1024"
   sodipodi:docname="logo_raw.svg"
   inkscape:version="1.4.2 (f4327f4, 2025-05-13)"
   inkscape:export-filename="logo.svg"
   inkscape:export-xdpi="96"
   inkscape:export-ydpi="96"
   xmlns:inkscape="http://www.inkscape.org/namespaces/inkscape"
   xmlns:sodipodi="http://sodipodi.sourceforge.net/DTD/sodipodi-0.dtd"
   xmlns="http://www.w3.org/2000/svg"
   xmlns:svg="http://www.w3.org/2000/svg">
  <defs
     id="defs1" />
  <sodipodi:namedview
     id="namedview1"
     pagecolor="#ffffff"
     bordercolor="#000000"
     borderopacity="0.25"
     inkscape:showpageshadow="2"
     inkscape:pageopacity="0.0"
     inkscape:pagecheckerboard="0"
     inkscape:deskcolor="#d1d1d1"
     inkscape:zoom="0.5406881"
     inkscape:cx="439.25509"
     inkscape:cy="492.89045"
     inkscape:window-width="1920"
     inkscape:window-height="1001"
     inkscape:window-x="-9"
     inkscape:window-y="-9"
     inkscape:window-maximized="1"
     inkscape:current-layer="g1" />
  <g
     inkscape:groupmode="layer"
     inkscape:label="Image"
     id="g1">
    <rect
       style="display:none;fill:#ffdd55"
       id="rect1"
       width="697.25964"
       height="945.09204"
       x="163.37018"
       y="39.453979"
       ry="35.140408" />
    <path
       style="fill:#ea580c;fill-opacity:1"
       d="m 314.34342,858.97749 c -0.57344,-1.50828 -2.62832,-9.04578 -4.56639,-16.75 -5.2528,-20.88096 -7.55485,-25.19735 -16.12537,-30.23539 l -4.71611,-2.7723 -82.99999,-0.53967 -83,-0.53968 -9.51148,-2.59222 C 79.411212,796.2785 57.273962,775.34309 46.988882,742.7198 c -5.78962,-18.36412 -7.02105,-29.47489 -7.03782,-63.5 -0.01,-19.88641 0.45993,-34.76428 1.31027,-41.5 3.1182,-24.69985 27.81543,-168.49774 32.28892,-188 11.45942,-49.95746 37.191188,-81.72379 73.795268,-91.1016 9.35786,-2.39744 15.49506,-2.38669 25.63675,0.0449 31.01635,7.4366 61.46543,26.52681 76.65088,48.05668 3.66186,5.19177 64.89249,114.89854 66.10941,118.44808 0.3547,1.03459 27.66906,-14.47256 50.69299,-28.77987 49.2432,-30.60024 51.3488,-31.66819 62.4375,-31.66819 13.2716,0 24.1697,7.14152 28.63018,18.76134 3.01821,7.86263 3.01123,18.63244 -0.0172,26.52324 -3.91686,10.20573 -11.848,17.4332 -49.05049,44.69861 -8.525,6.2479 -23.825,17.94634 -34,25.99652 -25.03462,19.80671 -42.00303,32.51409 -48.8246,36.56399 -14.12559,8.38623 -34.58583,8.6724 -49.60053,0.69376 -11.23574,-5.97055 -18.07386,-14.60654 -49.09898,-62.008 -15.93673,-24.34879 -33.35295,-50.94951 -38.70271,-59.11271 -9.35137,-14.26925 -16.17114,-22.11675 -19.22028,-22.11675 -0.79274,0 -2.65649,1.04522 -4.14167,2.32271 -5.40396,4.6483 -3.88837,7.68892 27.75229,55.67729 12.87361,19.525 28.82945,43.825 35.45742,54 l 12.05085,18.5 -7.2637,2.65289 c -15.4483,5.6421 -26.07521,13.01025 -31.079,21.54856 -4.42373,7.54852 -5.22058,13.54433 -5.41642,40.75513 -0.18032,25.05435 -0.17778,25.0867 2.36392,30.10251 3.34144,6.594 10.27697,12.86324 18.54382,16.76233 6.29315,2.96818 7.57638,3.18954 22.17961,3.8261 8.525,0.3716 37.55,0.72077 64.49999,0.77593 37.99655,0.0778 50.15236,0.40712 54.13161,1.46668 12.44857,3.31466 25.19758,13.41906 30.74583,24.36802 1.43541,2.83264 4.37082,12.03336 6.52314,20.44605 4.68915,18.32834 22.09942,91.4626 22.09942,92.8317 0,0.60621 -18.94141,0.9641 -51.02475,0.9641 h -51.02475 z m 252.09213,1.71084 c 0,-1.66517 12.43038,-50.30483 18.00898,-70.46853 2.28249,-8.25 5.23101,-19.86859 6.55228,-25.81909 4.99829,-22.5105 16.11589,-36.32391 33.6906,-41.85996 5.98236,-1.88444 8.88605,-1.95485 68.26211,-1.65516 l 62.01397,0.313 5.98603,-2.98939 c 5.94323,-2.96803 10.14428,-7.9656 11.96528,-14.23394 l 0.65206,-2.24454 -269.31565,-0.25546 c -259.03437,-0.24571 -269.4566,-0.32557 -273.00788,-2.09199 -5.27644,-2.62452 -9.68457,-7.16306 -12.16184,-12.52163 -1.93599,-4.18772 -2.14593,-6.35389 -2.14593,-22.14184 0,-17.45606 0.007,-17.51319 2.91129,-22.75433 3.07891,-5.55688 7.17052,-9.2521 13.3391,-12.04686 4.34911,-1.97042 21.69095,-2.10808 272.7766,-2.1653 l 147.027,-0.0335 5.473,-12.58944 c 3.01015,-6.92419 5.77061,-12.77609 6.13435,-13.00423 0.36375,-0.22813 12.28875,-1.09924 26.5,-1.93578 59.32717,-3.49229 66.87386,-5.65459 74.82243,-21.43835 1.83801,-3.64978 6.45502,-12.01262 10.26003,-18.58409 3.80501,-6.57146 10.89705,-19.59811 15.76008,-28.94811 4.86303,-9.35 12.08711,-22.86912 16.0535,-30.04248 10.20944,-18.46417 15.06709,-28.34922 16.44399,-33.46265 1.14179,-4.24029 1.07901,-4.52897 -1.4599,-6.71285 -3.60078,-3.09726 -5.93963,-2.87195 -10.04832,0.96798 -3.36948,3.14908 -6.09518,7.92219 -36.69028,64.25 -23.46907,43.20829 -25.0337,45.96937 -27.68237,48.85064 -1.44128,1.56785 -3.63689,3.24569 -4.87914,3.72853 -1.24224,0.48284 -19.65483,2.24765 -40.91687,3.92181 -35.77885,2.81719 -39.03685,2.93114 -43.74137,1.5298 -3.87969,-1.15565 -9.81816,-5.22751 -25.08313,-17.19888 -41.69764,-32.70086 -68.40309,-54.39098 -71.31071,-57.91843 -5.3554,-6.49703 -6.5336,-15.74546 -3.15594,-24.77305 4.10791,-10.97939 14.30482,-18.88612 26.10476,-20.24175 7.30365,-0.83908 6.45548,-1.24268 58.36189,27.77179 53.19013,29.73203 57.55055,32.11548 57.96442,31.68395 0.39144,-0.40814 12.33486,-23.0647 35.50593,-67.35441 22.36077,-42.74089 24.03588,-45.46344 34.52965,-56.12072 14.10571,-14.3255 35.09556,-26.95375 60.5,-36.39898 10.32877,-3.84018 12.62454,-4.32353 22.54151,-4.74583 12.90741,-0.54964 21.46699,1.33023 35.05917,7.69974 25.06587,11.74626 42.69877,31.72565 54.33518,61.56579 7.99905,20.51259 19.84166,85.24211 37.06905,202.61254 0.53381,3.6369 1.21859,11.9619 1.52171,18.5 0.30313,6.5381 0.73276,14.81246 0.95474,18.38746 0.68009,10.95305 -1.38077,44.21285 -3.51197,56.67907 -8.28129,48.44034 -37.17993,77.81218 -81.94316,83.28493 -5.31943,0.65035 -45.16734,1.036 -107.04705,1.036 h -98.57328 l -3.59277,3.75 c -4.74316,4.95075 -6.02786,7.75615 -9.2732,20.25 -3.51365,13.52673 -7.46837,27.26177 -8.00356,27.79696 -0.23039,0.2304 -24.07033,0.66334 -52.97764,0.9621 -43.41136,0.44865 -52.55873,0.31107 -52.55873,-0.79053 z M 824.84534,660.66767 c 5.9915,-2.24171 12.40751,-8.42089 18.79745,-18.1036 12.60834,-19.10546 77.42729,-122.03229 78.91959,-125.31739 3.35382,-7.38306 2.02709,-12.17702 -3.86701,-13.97287 -4.38077,-1.33476 -10.06705,6.31842 -40.82467,54.94599 -16.35048,25.85 -35.42615,55.775 -42.39036,66.5 -6.96422,10.725 -14.15245,21.87379 -15.97385,24.77509 -1.82139,2.90129 -5.05442,6.76685 -7.1845,8.59012 -2.13008,1.82326 -3.57592,3.61197 -3.21299,3.97491 1.38062,1.38062 10.47592,0.57592 15.73634,-1.39225 z M 474.44377,493.7198 c -0.10261,-11.19611 -8.43813,-27.30183 -18.32159,-35.40058 -2.36507,-1.938 -7.40416,-4.97618 -11.19799,-6.75153 -8.96872,-4.19697 -19.41643,-4.91209 -30.30694,-2.07441 l -7.31829,1.90688 0.51939,-2.09018 c 0.28567,-1.1496 2.57218,-13.11518 5.08113,-26.59018 4.79484,-25.75194 12.91066,-65.88428 14.60951,-72.24332 0.70141,-2.62548 1.9192,-4.21863 4.07798,-5.33498 2.98878,-1.54556 4.02313,-1.33794 35.71325,7.1685 17.94943,4.81809 33.81735,9.57247 35.26204,10.56529 1.4447,0.99282 3.40503,3.44529 4.35629,5.44993 1.6987,3.57974 1.66378,3.94114 -1.95562,20.24109 -2.02686,9.12795 -8.14985,35.28414 -13.60665,58.12488 -5.4568,22.84073 -10.15573,42.54458 -10.44208,43.78632 -0.28634,1.24175 -1.84799,3.71675 -3.47032,5.5 l -2.9497,3.24229 z m 176.39963,-16.29494 -7.09214,-4.20506 9.33863,-41.92018 c 5.13625,-23.0561 9.22772,-41.99106 9.09215,-42.07769 -1.13702,-0.7266 -50.94885,-17.61819 -51.16734,-17.35126 -0.15717,0.19202 -1.24871,17.85856 -2.42563,39.25897 -1.17693,21.40041 -2.29884,39.06882 -2.49315,39.26313 -0.19431,0.1943 -1.88488,-0.27728 -3.75683,-1.04796 -1.87195,-0.77069 -5.34706,-1.72139 -7.72247,-2.11267 l -4.31894,-0.71143 0.56178,-6.15045 c 1.13122,-12.38475 3.76245,-67.79743 3.24394,-68.31595 -0.84698,-0.84698 -32.66785,8.89951 -32.66785,10.00591 0,1.12216 10.63846,39.92247 15.09879,55.06786 1.60489,5.44955 2.80171,9.98148 2.6596,10.07095 -0.41958,0.26414 -12.10737,4.61479 -13.95092,5.19307 -1.93577,0.6072 -0.78059,4.17405 -13.27858,-41.00009 -4.69089,-16.95529 -8.52889,-32.36069 -8.52889,-34.23423 0,-2.32808 0.87054,-4.34838 2.75,-6.38201 2.39981,-2.59667 6.07704,-3.93576 28.87692,-10.51578 14.36981,-4.1471 27.49147,-7.54019 29.15924,-7.54019 2.84823,0 64.99301,20.59908 70.04915,23.21913 2.99156,1.55021 5.16469,5.76591 5.16469,10.01911 0,1.83565 -1.50269,9.8455 -3.3393,17.79966 -1.83662,7.95415 -6.44681,28.7496 -10.24486,46.2121 -3.79805,17.4625 -7.13286,31.72978 -7.41069,31.70506 -0.27783,-0.0247 -3.69662,-1.93721 -7.5973,-4.25 z m -272.40785,-9.4071 c 0,-0.38613 -3.41669,-20.23083 -7.59265,-44.09934 -4.97907,-28.45883 -7.37572,-44.55366 -6.96245,-46.75661 0.60773,-3.23947 3.65611,-6.24896 7.87533,-7.77485 2.66385,-0.96339 37.86984,-6.81043 38.31661,-6.36366 0.20867,0.20868 -3.92149,21.26326 -9.17814,46.78796 -5.25665,25.5247 -9.80849,47.80517 -10.11521,49.51215 -0.43285,2.40898 -1.71961,3.80783 -5.74918,6.25 -5.29279,3.20777 -6.59431,3.69021 -6.59431,2.44435 z m 390.5,-110.94406 c -34.87096,-3.05937 -62.76522,-22.28 -77.97314,-53.72764 -6.61751,-13.68399 -9.42865,-24.62161 -10.18456,-39.62626 -2.29494,-45.55426 27.13842,-86.58198 71.1577,-99.18806 6.96751,-1.99533 10.19405,-2.28554 25,-2.24863 15.57088,0.0388 17.73825,0.26953 25.78184,2.74438 34.45028,10.59969 59.54218,37.12285 68.42641,72.3295 1.3168,5.21824 1.72166,10.9366 1.6895,23.86281 -0.0388,15.60018 -0.26773,17.74108 -2.77986,26 -10.37868,34.12108 -35.64872,58.61781 -69.10641,66.99161 -8.80533,2.2038 -24.01551,3.56381 -32.01148,2.86229 z m -547.49999,-2.79773 c -37.25627,-7.86727 -66.21172,-35.08505 -76.19565,-71.623 -3.10837,-11.37562 -3.32122,-36.56926 -0.40075,-47.43317 9.21536,-34.28035 35.11869,-60.39547 69.0964,-69.66132 6.70382,-1.82816 10.67337,-2.18316 24.5,-2.19103 15.15894,-0.009 17.23149,0.21383 25.5,2.73721 34.38456,10.49345 59.77876,36.81145 68.6189,71.11514 3.28977,12.76577 3.33628,34.08374 0.10228,46.87699 -8.52043,33.70564 -34.46195,59.97529 -68.22118,69.08412 -8.74737,2.36019 -33.96733,3.00246 -43,1.09506 z"
       id="path1" />
    <text
       xml:space="preserve"
       style="font-style:normal;font-variant:normal;font-weight:normal;font-stretch:normal;font-size:108.247px;font-family:Pacifico;-inkscape-font-specification:'Pacifico, Normal';font-variant-ligatures:normal;font-variant-caps:normal;font-variant-numeric:normal;font-variant-east-asian:normal;text-align:start;writing-mode:lr-tb;direction:ltr;text-anchor:start;display:none;fill:#ff0000;stroke-width:9.02055"
       x="88.245163"
       y="641.3808"
       id="text2"><tspan
         sodipodi:role="line"
         id="tspan2"
         x="88.245163"
         y="641.3808"
         style="fill:#ff0000;stroke-width:9.02055">Pauper und Plausch</tspan></text>
  </g>
</svg>
